<?xml version="1.0" encoding="UTF-8" standalone="no"?>
<!-- Generator: Adobe Illustrator 13.0.0, SVG Export Plug-In . SVG Version: 6.00 Build 14948)  -->

<svg
   xmlns:dc="http://purl.org/dc/elements/1.1/"
   xmlns:cc="http://creativecommons.org/ns#"
   xmlns:rdf="http://www.w3.org/1999/02/22-rdf-syntax-ns#"
   xmlns:svg="http://www.w3.org/2000/svg"
   xmlns="http://www.w3.org/2000/svg"
   xmlns:sodipodi="http://sodipodi.sourceforge.net/DTD/sodipodi-0.dtd"
   xmlns:inkscape="http://www.inkscape.org/namespaces/inkscape"
   version="1.1"
   id="Layer_1"
   x="0px"
   y="0px"
   viewBox="0 0 546.783 546.78305"
   enable-background="new 0 0 546.783 538.582"
   xml:space="preserve"
   inkscape:version="0.91 r13725"
   sodipodi:docname="logo.svg"
   width="546.78302"
   height="546.78302"><metadata
     id="metadata23"><rdf:RDF><cc:Work
         rdf:about=""><dc:format>image/svg+xml</dc:format><dc:type
           rdf:resource="http://purl.org/dc/dcmitype/StillImage" /><dc:title /></cc:Work></rdf:RDF></metadata><defs
     id="defs21" /><sodipodi:namedview
     pagecolor="#ffffff"
     bordercolor="#666666"
     borderopacity="1"
     objecttolerance="10"
     gridtolerance="10"
     guidetolerance="10"
     inkscape:pageopacity="0"
     inkscape:pageshadow="2"
     inkscape:window-width="1389"
     inkscape:window-height="800"
     id="namedview19"
     showgrid="false"
     inkscape:zoom="0.43818771"
     inkscape:cx="-6.169016"
     inkscape:cy="276.13754"
     inkscape:window-x="66"
     inkscape:window-y="-8"
     inkscape:window-maximized="1"
     inkscape:current-layer="Layer_1"
     fit-margin-top="0"
     fit-margin-left="0"
     fit-margin-right="0"
     fit-margin-bottom="0" /><circle
     style="fill:#0096d7;fill-opacity:1;stroke:none;stroke-opacity:1"
     id="path4147"
     cx="273.39151"
     cy="273.39151"
     r="273.39151" /><g
     id="g4149"
     transform="translate(-6.617462,7.49651)"><path
       d="m 369.038,75.597 c -22.832,0 -44.605,9.762 -60.441,25.625 -22.766,23.199 -33.207,57.445 -40.207,81.063 l -23.234,-0.316 c -1.594,0 -2.922,1.371 -3.289,2.516 l -3.523,11.979 c -0.359,1.219 0.398,2.793 2.102,2.793 l 23.227,-0.309 c 0,0 -31.25,125.493 -37.578,150.899 -7.93,31.874 -20.734,64.351 -29.852,75.854 -8.164,10.289 -13.602,13.48 -19.156,13.48 -7.727,0 -11.741,-5.59 -13.952,-14.801 -1.484,-6.641 -5.789,-15.742 -15.375,-15.742 -9.953,0 -23.594,11.309 -23.594,24.953 0,18.465 30.797,22.602 41.094,22.602 20.28,0 46.499,-12.93 64.179,-33.211 22.484,-25.473 34.961,-57.372 46.641,-102.351 l 28.539,-121.879 29.895,0.516 c 2.418,0 3.5,-1.695 3.945,-2.957 l 3.875,-11.159 c 0.434,-1.285 -0.246,-2.867 -2.133,-2.867 l -30.867,-0.008 c 7.371,-25.844 18.445,-64.051 39.438,-85.09 1.848,-1.852 7.086,-6.367 11.859,-6.414 8.406,-0.078 10.758,4.734 14.262,12.488 3.414,7.629 2.836,20.746 14.406,20.746 13.355,0 23.402,-14.969 23.402,-25.305 -0.003,-14.035 -24.268,-23.105 -43.663,-23.105 z"
       id="path7"
       inkscape:connector-curvature="0"
       style="fill:#ffffff" /><path
       d="m 339.612,303.049 c -12.734,0.305 -22,10.934 -22.559,23.969 -0.555,12.75 7.313,20.016 18.504,20.016 19.086,0 22.57,-17.293 22.824,-23.355 0.653,-14.864 -9.706,-20.63 -18.769,-20.63 z"
       id="path9"
       inkscape:connector-curvature="0"
       style="fill:#ffffff" /><path
       d="m 406.132,303.049 c -12.738,0.305 -22.008,10.934 -22.559,23.969 -0.559,12.75 7.305,20.016 18.5,20.016 19.078,0 22.566,-17.293 22.813,-23.355 0.659,-14.864 -9.703,-20.63 -18.754,-20.63 z"
       id="path11"
       inkscape:connector-curvature="0"
       style="fill:#ffffff" /><path
       d="m 472.631,303.049 c -12.734,0.305 -21.996,10.934 -22.555,23.969 -0.559,12.75 7.316,20.016 18.508,20.016 19.082,0 22.563,-17.293 22.82,-23.355 0.66,-14.864 -9.715,-20.63 -18.773,-20.63 z"
       id="path13"
       inkscape:connector-curvature="0"
       style="fill:#ffffff" /><path
       d="m 204.968,98.019 c -13.555,0.336 -23.594,11.633 -24.469,25.535 -0.82,13.59 7.422,21.363 19.367,21.363 20.313,0 24.344,-18.449 24.75,-24.922 0.961,-15.836 -9.953,-21.976 -19.648,-21.976 z"
       id="path15"
       inkscape:connector-curvature="0"
       style="fill:#ffffff" /><path
       d="m 194.827,293.713 c -0.953,-0.918 -2.711,-1.246 -4.117,0.18 0,0 -20.742,23.133 -27.812,23.133 -3.195,0 -3.102,-3.902 -3.102,-4.539 0,-3.41 2.094,-9.641 3.188,-12.594 l 8.851,-23.246 21.352,-51.637 c 4.414,-10.332 9.703,-23.707 9.703,-32.551 0,-11.452 -8.672,-14.229 -14.922,-14.229 -28.741,0 -59.608,33.62 -71.39,47.022 -0.039,0.051 -0.102,0.129 -0.102,0.129 -0.867,0.93 -1.43,2.656 0.336,4.359 l 5.414,5.165 c 1.023,0.934 2.836,0.984 3.969,-0.242 0,0 14.141,-15.426 19.32,-19.215 1.375,-1.059 3.586,-2.484 4.867,-2.484 1.836,0 2.742,2.738 2.742,4.227 0,4.793 -4.82,16.235 -7.047,22.141 l -22.141,56.105 c -7.727,18.813 -11.352,28.801 -11.352,37.285 0,9.594 5.352,17.164 18.625,17.164 30.742,0.012 69.522,-46.383 69.522,-46.383 1.516,-1.723 0.758,-3.41 -0.172,-4.281 l -5.732,-5.509 z"
       id="path17"
       inkscape:connector-curvature="0"
       style="fill:#ffffff" /></g></svg>
