<svg xmlns="http://www.w3.org/2000/svg" width="579.8" height="30" viewBox="0 0 579.8 30"><path d="M76 11.1h-.8V5.8c0-1.5-.6-3.1-1.6-4.1-1-1-2.3-1.6-3.8-1.6S66.9.7 66 1.7c-1 1-1.6 2.6-1.6 4.1V11h-.8c-.5 0-.8.4-.8.8v7.4c0 .4.4.8.8.8H76c.4 0 .8-.4.8-.8v-7.4c0-.4-.3-.7-.8-.7zm-5.2 6h-2v-3h2v3zm2.5-6h-6.9V5.8c0-1 .4-2.2 1-2.9.6-.7 1.5-1.1 2.4-1.1.9 0 1.8.4 2.4 1.1.7.7 1 1.9 1 2.9v5.3z" fill-rule="evenodd" clip-rule="evenodd"/><path d="M26.8 12.2c0-.1-.1-.2-.2-.3l-1.8-1.8V3.3h-7L15.3.9c-.2-.2-.7-.2-.9 0l-2.5 2.4h-7v6.8l-1.8 1.8c-.1.2-.2.4-.1.5l-.1-.1V27c0 1.2 1 2.2 2.2 2.2h19.6c1.2 0 2.2-1 2.2-2.2l-.1-14.8c.1 0 .1 0 0 0zM14.9 1.8l1.5 1.4h-3l1.5-1.4zm-9 2.5h18v10.5l-9 9.1-9-9.1V4.3zm-2.1 8.3l1.1-1v2.3l-1-1-.1-.3c.1 0 .1 0 0 0zm.1 14.5V14.2l6.8 6.9-6.6 6.7c-.1-.2-.2-.5-.2-.7zm20.8 1.2H5.1 5l6.4-6.5 3 3.1c.1.1.2.1.4.1h.2c.1 0 .3 0 .4-.1l3-3.1 6.3 6.5zm1.2-1.2c0 .3-.1.5-.2.7l-6.6-6.7 6.8-6.9v12.9zm0-14.4l-1 1v-2.2l1 1v.2zm-13-4.4h4c.3 0 .5-.2.5-.5s-.2-.5-.5-.5h-4c-.3 0-.5.2-.5.5s.2.5.5.5zm-3.5 3h11c.3 0 .5-.2.5-.5s-.2-.5-.5-.5h-11c-.3 0-.5.2-.5.5s.2.5.5.5zm11.5 2.5c0-.3-.2-.5-.5-.5h-11c-.3 0-.5.2-.5.5s.2.5.5.5h11c.3 0 .5-.2.5-.5zm-1 3c0-.3-.2-.5-.5-.5h-9c-.3 0-.5.3-.5.6s.2.5.5.5h9c.3-.1.5-.3.5-.6z" fill="#FFF"/><path d="M96 11.1h-.8V5.8c0-1.5-.6-3.1-1.6-4.1-1-1-2.3-1.6-3.8-1.6S86.9.7 86 1.7c-1 1-1.6 2.6-1.6 4.1V11H83.6c-.5 0-.8.4-.8.8v7.4c0 .4.4.8.8.8H96c.4 0 .8-.4.8-.8v-7.4c.1-.4-.3-.7-.8-.7zm-5.2 6h-2v-3h2v3zm2.5-6H86.4V5.8c0-1 .4-2.2 1-2.9.6-.7 1.5-1.1 2.4-1.1.9 0 1.8.4 2.4 1.1.7.7 1 1.9 1 2.9v5.3z" fill-rule="evenodd" clip-rule="evenodd" fill="#888"/><path d="M108.5 2.4l.9-.3c.8-.2 1.7 3.3 1 3.6l-.9.3c-1.2.3-1.6 1.1-1.3 2.1l1.3 4.8c.3 1.1 1 1.4 2.2 1.1l.9-.3c.8-.2 1.8 3.7 1 3.9l-.9.2c-2.7.8-4.8-.8-5.5-3.3l-1.7-6.4c-.7-2.4.3-4.9 3-5.7" fill="#888"/><path d="M138.6.1l-8.8 8.8L121 .2l-1.2 1.2 8.7 8.7-8.7 8.7L121 20l8.8-8.7 8.8 8.8 1.2-1.2-8.8-8.8 8.8-8.8-1.2-1.2z"/><path d="M157.7 2.1c-.9.1-1.7.2-2.2.3-.6.2-1.1.4-1.4.7-.4.3-.9.8-1.4 1.5-.5.6-1.3 1.7-2.3 3.1-.7 1-1.6 2.3-2.6 3.8-1.1 1.6-1.7 2.4-1.8 2.4-.2 0-.4-.3-.7-1-.1-.3-.2-.6-.3-.7-.1-.3-.2-.5-.3-.6-.1-.1-.2-.1-.4-.1-.5 0-1 .2-1.5.5s-.8.7-.8 1.1c0 .2.1.7.4 1.5v.2c.2.7.4 1.3.5 1.7.2.4.3.7.5.9.2.3.4.5.7.6.3.1.6.2 1 .2.9 0 1.6-.5 2.1-1.4.2-.3.3-.6.4-.7 1.5-2.4 3-4.7 4.8-6.9 1.7-2.2 3.6-4.4 5.6-6.5l-.3-.6z" fill="#78BBB2"/><path d="M177.7 2.1c-.9.1-1.7.2-2.2.3-.6.2-1.1.4-1.4.7-.4.3-.9.8-1.4 1.5-.5.6-1.3 1.7-2.3 3.1-.7 1-1.6 2.3-2.6 3.8-1.1 1.6-1.7 2.4-1.8 2.4-.2 0-.4-.3-.7-1-.1-.3-.2-.6-.3-.7-.1-.3-.2-.5-.3-.6-.1-.1-.2-.1-.4-.1-.5 0-1 .2-1.5.5s-.8.7-.8 1.1c0 .2.1.7.4 1.5v.2c.2.7.4 1.3.5 1.7.2.4.3.7.5.9.2.3.4.5.7.6.3.1.6.2 1 .2.9 0 1.6-.5 2.1-1.4.2-.3.3-.6.4-.7 1.5-2.4 3-4.7 4.8-6.9 1.7-2.2 3.6-4.4 5.6-6.5l-.3-.6zM195.3 3.1v-1h-3v1h-5v-1h-3v1h-3v15h17v-15h-3zm-2 0h1v2h-1v-2zm-8 0h1v2h-1v-2zm12 14h-15V8.2h15v8.9zm-15-9.9V4.1h2v2h3v-2h5v2h3v-2h2v3.1h-15z"/><path d="M207.2 15.1c.3.3.8.3 1.1 0l4.5-4.5c.3-.3.3-.8 0-1.1L208.2 5c-.1-.1-.3-.2-.5-.2s-.4.1-.5.2c-.3.3-.3.8 0 1.1l3.9 4-3.9 4c-.3.2-.3.7 0 1z" fill="#49A2FA"/><path d="M225.5 9.4l1.1-.9 3.4 3.1 3.4-3.1 1.1.9-4.5 4.1-4.5-4.1z" fill="#8D8D8D"/><path d="M248.3 14.6l-.9-1.1 3.1-3.4-3.1-3.4.9-1.1 4.1 4.5-4.1 4.5z" fill="#818181"/><path fill="#004A92" d="M281.1 13.8h1.9v1.9h-1.9zM281.1 10.9h1.9v1.9h-1.9zM281.1 8.1h1.9V10h-1.9zM281.1 5.3h1.9v1.9h-1.9zM278.4 16.6h1.9v1.9h-1.9zM280.2 13.8h-1.8v1.8h1.8M278.4 10.9h1.9v1.9h-1.9zM278.4 8.1h1.9V10h-1.9zM278.4 5.3h1.9v1.9h-1.9zM278.4 2.5h1.9v1.9h-1.9zM275.6 16.6h1.9v1.9h-1.9zM275.6 13.8h1.9v1.9h-1.9zM275.6 5.3h1.9v1.9h-1.9zM275.6 2.5h1.9v1.9h-1.9zM274.7 16.6h-1.9v1.8h1.9M274.7 13.8h-1.9v1.8h1.9M274.7 11h-1.9v1.8h1.9M274.7 8.1h-1.9V10h1.9M274.7 5.3h-1.9v1.9h1.9M274.7 2.5h-1.9v1.9h1.9M270.1 16.6h1.9v1.9h-1.9zM270.1 13.8h1.9v1.9h-1.9zM270.1 10.9h1.9v1.9h-1.9zM270.1 8.1h1.9V10h-1.9zM270.1 5.3h1.9v1.9h-1.9zM270.1 2.5h1.9v1.9h-1.9z"/><path fill="#E8501D" d="M264.5 16.6h1.9v1.9h-1.9zM264.5 13.8h1.9v1.9h-1.9zM264.5 10.9h1.9v1.9h-1.9zM264.5 8.1h1.9V10h-1.9zM264.5 5.3h1.9v1.9h-1.9zM264.5 2.5h1.9v1.9h-1.9zM261.8 16.6h1.9v1.9h-1.9zM261.8 13.8h1.9v1.9h-1.9zM261.8 10.9h1.9v1.9h-1.9zM261.8 8.1h1.9V10h-1.9zM261.8 5.3h1.9v1.9h-1.9zM261.8 2.5h1.9v1.9h-1.9z"/><path fill="#004A92" d="M290.3 5.3h1.1v5.8l4.1-5.8h1.2l-2.4 3.4 3.2 6.8h-1.2l-2.8-5.9-2.1 3v2.9h-1.1"/><path d="M302.6 11.5l-1.5-5.1-1.4 5.1h2.9zm-2.1-6.2h1.3l3 10.3h-1.1l-.9-3.1h-3.5l-.9 3.1h-1.1M310.4 11.5l-1.5-5.1-1.4 5.1h2.9zm-2-6.2h1.3l3 10.3h-1.1l-.9-3.1h-3.5l-.9 3.1h-1.1M315.3 6.3V10h2c1.5 0 2.3-.6 2.3-1.9 0-1.2-.7-1.8-2.2-1.8h-2.1zm-1.1-1h3.2c2.2 0 3.3 1 3.3 2.9 0 1.2-.6 2.1-1.7 2.6l1.9 4.8h-1.1L318 11h-2.7v4.5h-1.1M325.2 15.5h-1.1V6.3h-2.6v-1h6.3v1h-2.6M331.7 5.6h1.5l2.8 8.3 2.7-8.3h1.5v9.9h-1V6.7l-3 8.8h-.7l-2.9-8.9v8.9h-.9M348.2 10.6c0-2.6-1-4.1-2.5-4.1s-2.5 1.5-2.5 4.1c0 2.6 1 4.1 2.5 4.1s2.5-1.5 2.5-4.1m-6.1 0c0-3.2 1.5-5.2 3.7-5.2s3.7 2 3.7 5.2-1.5 5.2-3.7 5.2-3.7-2.1-3.7-5.2M354.5 14.5c1.4 0 2.1-.6 2.1-1.8 0-1.3-.8-1.9-2.3-1.9h-1.9v3.7h2.1zm-.1-4.6c1.3 0 1.9-.6 1.9-1.7 0-1-.6-1.6-1.8-1.6h-2.1v3.3h2zm-3.1-4.3h3.4c1.8 0 2.8 1 2.8 2.5 0 1-.6 1.8-1.6 2.1 1.2.4 1.9 1.3 1.9 2.5 0 1.8-1.1 2.7-3.2 2.7h-3.2M359.7 5.6h1.1v9.9h-1.1zM363.3 5.6h1.1v9.9h-1.1zM366.8 5.6h1.1v8.9h4.1v1h-5.2M371.5 11.3h3v1h-3zM396.9 13.6h1.8v1.8h-1.8zM396.9 10.9h1.8v1.8h-1.8zM396.9 8.1h1.8v1.8h-1.8zM396.9 5.4h1.8v1.8h-1.8zM394.2 16.3h1.8v1.8h-1.8zM394.2 13.6h1.8v1.8h-1.8zM394.2 10.9h1.8v1.8h-1.8zM394.2 8.1h1.8v1.8h-1.8zM394.2 5.4h1.8v1.8h-1.8zM394.2 2.7h1.8v1.8h-1.8zM391.5 16.3h1.8v1.8h-1.8zM391.5 13.6h1.8v1.8h-1.8zM391.5 5.4h1.8v1.8h-1.8zM391.5 2.7h1.8v1.8h-1.8zM388.9 16.3h1.8v1.8h-1.8zM388.9 13.6h1.8v1.8h-1.8zM388.9 10.9h1.8v1.8h-1.8zM388.9 8.1h1.8v1.8h-1.8zM388.9 5.4h1.8v1.8h-1.8zM388.9 2.7h1.8v1.8h-1.8zM386.2 16.3h1.8v1.8h-1.8zM386.2 13.6h1.8v1.8h-1.8zM386.2 10.9h1.8v1.8h-1.8zM386.2 8.1h1.8v1.8h-1.8zM386.2 5.4h1.8v1.8h-1.8zM386.2 2.7h1.8v1.8h-1.8z" fill="#004A92"/><path fill="#E8501D" d="M380.8 16.3h1.8v1.8h-1.8zM380.8 13.6h1.8v1.8h-1.8zM380.8 10.9h1.8v1.8h-1.8zM380.8 8.1h1.8v1.8h-1.8zM380.8 5.4h1.8v1.8h-1.8zM380.8 2.7h1.8v1.8h-1.8zM378.2 16.3h1.8v1.8h-1.8zM378.2 13.6h1.8v1.8h-1.8zM378.2 10.9h1.8v1.8h-1.8zM378.2 8.1h1.8v1.8h-1.8zM378.2 5.4h1.8v1.8h-1.8zM378.2 2.7h1.8v1.8h-1.8z"/><path d="M407.8 16.2c0 .5.2 1 .6 1.4.4.4.9.6 1.4.6.6 0 1-.2 1.4-.6.4-.4.6-.8.6-1.4 0-.5-.2-1-.6-1.4-.4-.4-.9-.6-1.4-.6-.6 0-1 .2-1.4.6-.4.4-.6.8-.6 1.4zm0-11.8c0 .3.1.7.2 1.2.1.3.3 1 .6 1.9.2.7.4 1.3.5 1.7.1.4.2 1.5.4 3.3h.7c.2-1.4.3-2.3.4-2.8.1-.5.2-1 .4-1.7.3-1.2.6-2 .7-2.5.1-.5.2-.9.2-1.1 0-.8-.2-1.4-.6-1.7-.4-.3-.9-.5-1.4-.5-.5 0-1 .2-1.4.5-.5.3-.7.9-.7 1.7z" fill="#F0BF44"/><path d="M427.8 16.2c0 .5.2 1 .6 1.4.4.4.9.6 1.4.6.6 0 1-.2 1.4-.6.4-.4.6-.8.6-1.4 0-.5-.2-1-.6-1.4-.4-.4-.9-.6-1.4-.6-.6 0-1 .2-1.4.6-.4.4-.6.8-.6 1.4zm0-11.8c0 .3.1.7.2 1.2.1.3.3 1 .6 1.9.2.7.4 1.3.5 1.7.1.4.2 1.5.5 3.3h.7c.2-1.4.3-2.3.4-2.8.1-.5.2-1 .4-1.7.3-1.2.6-2 .7-2.5.1-.5.2-.9.2-1.1 0-.8-.2-1.4-.6-1.7-.4-.3-.9-.5-1.4-.5-.5 0-1 .2-1.4.5-.6.3-.8.9-.8 1.7z" fill="#EB6F6F"/><path d="M447.8 16.2c0 .5.2 1 .6 1.4.4.4.9.6 1.4.6.6 0 1-.2 1.4-.6.4-.4.6-.8.6-1.4 0-.5-.2-1-.6-1.4-.4-.4-.9-.6-1.4-.6-.6 0-1 .2-1.4.6-.4.4-.6.8-.6 1.4zm0-11.8c0 .3.1.7.2 1.2.1.3.3 1 .6 1.9.2.7.4 1.3.5 1.7.1.4.2 1.5.5 3.3h.7c.2-1.4.3-2.3.4-2.8.1-.5.2-1 .4-1.7.3-1.2.6-2 .7-2.5.1-.5.2-.9.2-1.1 0-.8-.2-1.4-.6-1.7-.4-.3-.9-.5-1.4-.5-.5 0-1 .2-1.4.5-.6.3-.8.9-.8 1.7z" fill="#97B9C2"/><path d="M464.8 7.6c-.3.3-.3.8 0 1.1l4.5 4.5c.3.3.8.3 1.1 0l4.5-4.5c.1-.1.2-.3.2-.5s-.1-.4-.2-.5c-.3-.3-.8-.3-1.1 0l-4 3.9-4-3.9c-.3-.4-.7-.4-1-.1z" fill="#49A2FA"/><path d="M515 11.3c-.2-.2-.7-.3-1.4-.3-.5 0-1.1 0-1.7.1-.3-.2-.6-.3-.8-.5-.6-.6-1.1-1.3-1.4-2.2 0-.1 0-.2.1-.2 0 0 .3-1.9.2-2.6V5.3c-.1-.2-.3-.4-.6-.4h-.2c-.3 0-.6.2-.6.4-.2.8 0 1.9.4 3.4l-.1.2c-.3.7-.6 1.3-.9 1.9v.1c-.3.6-.6 1.2-.9 1.6l-.3.1s-.5.3-.6.3c-.9.6-1.5 1.2-1.6 1.7 0 .2 0 .4.2.5l.3.1c.1.1.2.1.4.1.7 0 1.4-.8 2.5-2.7 1.2-.4 2.6-.7 3.8-.9.9.5 2.1.9 2.8.9h.3c.1 0 .3-.1.3-.2.1-.2.2-.5.1-.8-.2-.1-.2-.2-.3-.3zm-9.9 3.5c.1-.3.6-1 1.3-1.6 0 0 .2-.1.3-.2-.7 1.2-1.2 1.7-1.6 1.8zm4.2-9.6c.2 0 .3.5.3 1s-.1.9-.3 1.1c-.1-.4-.2-1-.2-1.4.1.1.1-.7.2-.7zm-1.2 6.8c.1-.3.3-.5.5-.8.4-.7.6-1.3.8-1.8.4.7.8 1.2 1.3 1.6l.2.2c-1.1.3-2 .5-2.8.8zm6.7 0c-.1 0-.3.1-.4.1-.4 0-.9-.2-1.5-.5h.7c.4 0 .5 0 .9.1.3 0 .3.2.3.3zm1.1-6.8L513.7 3c-.5-.5-1.4-.9-2.1-.9h-7.5c-.7 0-1.2.6-1.2 1.3v13.5c0 .7.6 1.2 1.2 1.2h11.5c.7 0 1.3-.6 1.3-1.2V7.3c-.1-.7-.5-1.6-1-2.1zm-.7.7s.1.1.1.2h-2.6V3.5c.1 0 .1.1.2.1l2.3 2.3zm.6 10.9c0 .1-.1.2-.2.2h-11.5c-.1 0-.2-.1-.2-.2V3.3c0-.1.1-.3.2-.3h7.8v4h4v9.8z"/><path d="M494.8 13.1c.3-.3.3-.8 0-1.1l-4.5-4.5c-.3-.3-.8-.3-1.1 0l-4.5 4.5c-.1.1-.2.3-.2.5s.1.4.2.5c.3.3.8.3 1.1 0l4-3.9 4 3.9c.2.4.7.4 1 .1z" fill="#49A2FA"/><path d="M537.8 2.1c-.9.1-1.7.2-2.2.3-.6.2-1.1.4-1.4.7-.4.3-.9.8-1.4 1.5-.5.6-1.3 1.7-2.3 3.1-.7 1-1.6 2.3-2.6 3.8-1.1 1.6-1.7 2.4-1.8 2.4-.2 0-.4-.3-.7-1-.1-.3-.2-.6-.3-.7-.1-.3-.2-.5-.3-.6-.1-.1-.2-.1-.4-.1-.5 0-1 .2-1.5.5s-.8.7-.8 1.1c0 .2.1.7.4 1.5v.2c.2.7.4 1.3.5 1.7.2.4.3.7.5.9.2.3.4.5.7.6.3.1.6.2 1 .2.9 0 1.6-.5 2.1-1.4.2-.3.3-.6.4-.7 1.5-2.4 3-4.7 4.8-6.9 1.7-2.2 3.6-4.4 5.6-6.5l-.3-.6z" fill="#888"/><path d="M558.6.1l-8.8 8.8L541 .2l-1.2 1.2 8.8 8.7-8.8 8.7L541 20l8.8-8.7 8.8 8.8 1.2-1.2-8.8-8.8 8.8-8.8-1.2-1.2z" fill="#E04A4A"/><circle cx="45.1" cy="13" r="12" fill="none" stroke="#BBB" stroke-miterlimit="10"/><g fill="#BBB"><path d="M46.1 18.7c-.3.3-.7.4-1.1.4-.5 0-.8-.1-1.1-.4-.3-.3-.4-.6-.4-1s.1-.8.4-1c.3-.3.6-.4 1.1-.4.5 0 .8.1 1.1.4.3.3.4.6.4 1s-.1.8-.4 1zM48.9 10.5c-.2.4-.5.7-.8 1-.3.3-.6.6-1 .8-.4.2-.7.5-1 .8-.3.3-.6.6-.8.9-.2.3-.3.8-.3 1.3h-.6c-.2-.6-.2-1-.2-1.4 0-.4.1-.8.3-1.1.2-.3.3-.6.6-.9.2-.3.4-.5.7-.8.2-.3.4-.6.5-.9.1-.3.2-.7.2-1.1 0-.2 0-.5-.1-.7-.1-.2-.1-.4-.3-.6-.1-.2-.3-.3-.5-.4-.2-.1-.4-.2-.7-.2-.3 0-.5 0-.7.1-.2 0-.3.1-.4.2l-.4 2.5h-.6c-.1-.2-.2-.4-.2-.6-.1-.2-.2-.5-.2-.7-.1-.3-.1-.5-.2-.8-.2-.3-.2-.6-.3-.8.5-.3 1-.5 1.6-.7.6-.2 1.3-.3 2.2-.3.5 0 1 .1 1.4.2.5.3.9.5 1.2.7.3.3.5.6.7.9.2.4.2.8.2 1.2 0 .5-.1 1-.3 1.4z"/></g><path d="M572.7 14.1l-3.9-4 3.9-4c.3-.3.3-.8 0-1.1-.1-.1-.3-.2-.5-.2s-.4.1-.5.2l-4.5 4.5c-.3.3-.3.8 0 1.1l4.5 4.5c.3.3.8.3 1.1 0 .2-.3.2-.8-.1-1z" fill="#49A2FA"/></svg>
